<svg width="122" height="126" viewBox="0 0 122 126" fill="none" xmlns="http://www.w3.org/2000/svg">
<path d="M3 27.147L72.6471 42.2059M3 27.147L3.94118 106.441M3 27.147L51 4.49282M72.6471 42.2059V123.382M72.6471 42.2059L119 18.2059M72.6471 123.382L3.94118 106.441M72.6471 123.382L119 102.441V98.4411M3.94118 106.441L51 84.5588V82.9117M119 18.2059L53.3529 3.38232L51 4.49282M119 18.2059V98.4411M51 4.49282V82.9117M51 82.9117L119 98.4411" stroke="#DA2845" stroke-width="4.70588"/>
<path d="M43.4707 38.9116V33.2646L48.6472 34.2057V39.6175L43.4707 38.9116Z" fill="white"/>
<path d="M66.0589 43.3822V38.2057L72.4119 39.1469L70.2942 44.0881L66.0589 43.3822Z" fill="white"/>
<path d="M65.3531 124.088V118.912L70.2942 120.088V125.5L65.3531 124.088Z" fill="white"/>
<path d="M75.0001 125.5V118.912L79.2354 117.265V123.618L75.0001 125.5Z" fill="white"/>
<path d="M48.6472 2.91162L43.9413 5.02927V10.441L48.6472 8.55868V2.91162Z" fill="white"/>
<path d="M57.5884 81.4999L53.3531 80.794V86.2057L57.5884 87.1469V81.4999Z" fill="white"/>
<path d="M78.7648 86.441L75.0001 85.2646V91.1469L78.7648 91.8528V86.441Z" fill="white"/>
</svg>
