<svg width="3212" height="573" viewBox="0 0 3212 573" fill="none" xmlns="http://www.w3.org/2000/svg">
<path d="M619.963 564H509.834L652.877 140.046H789.296L932.339 564H822.21L722.639 246.862H719.327L619.963 564ZM605.265 397.151H835.459V474.986H605.265V397.151ZM1007.13 564V140.046H1182.26C1214 140.046 1241.4 146.256 1264.44 158.677C1287.63 170.959 1305.5 188.141 1318.06 210.222C1330.62 232.165 1336.9 257.696 1336.9 286.815C1336.9 316.072 1330.48 341.672 1317.64 363.615C1304.95 385.42 1286.8 402.326 1263.2 414.333C1239.6 426.339 1211.59 432.342 1179.16 432.342H1071.1V351.609H1160.11C1175.57 351.609 1188.47 348.918 1198.82 343.536C1209.31 338.153 1217.25 330.632 1222.63 320.972C1228.01 311.173 1230.7 299.788 1230.7 286.815C1230.7 273.704 1228.01 262.388 1222.63 252.866C1217.25 243.205 1209.31 235.753 1198.82 230.509C1188.33 225.264 1175.43 222.642 1160.11 222.642H1109.6V564H1007.13ZM1982.18 140.046V564H1879.72V140.046H1982.18ZM2075.66 564V140.046H2371.27V223.263H2178.13V310.207H2356.16V393.632H2178.13V480.782H2371.27V564H2075.66ZM2566.23 564L2442.85 140.046H2556.09L2620.05 417.852H2623.57L2696.64 140.046H2788.97L2862.05 418.473H2865.56L2929.74 140.046H3042.76L2919.59 564H2820.85L2744.46 306.895H2741.15L2664.77 564H2566.23Z" fill="black"/>
<path d="M112.015 565.156H0V154.619H112.015L224.996 271.487L337.011 155.618L310.938 128.648H450.957V276.481L421.987 246.515L224.996 450.285L112.015 333.417V565.156Z" fill="url(#paint0_linear_41_15)"/>
<path d="M449.991 333.417L337.011 450.285V565.156H449.991V333.417Z" fill="url(#paint1_linear_41_15)"/>
<path d="M1446.71 129H1378L1395.18 173.848L1446.71 129Z" fill="black"/>
<path d="M1597 447.424L1519.71 173.848L1425.24 268.03L1519.71 573H1674.29L1816 129H1687.18L1597 447.424Z" fill="black"/>
<path d="M1446.71 129H1378L1395.18 173.848L1446.71 129Z" stroke="black"/>
<path d="M1597 447.424L1519.71 173.848L1425.24 268.03L1519.71 573H1674.29L1816 129H1687.18L1597 447.424Z" stroke="black"/>
<defs>
<linearGradient id="paint0_linear_41_15" x1="0" y1="346.902" x2="450.957" y2="346.902" gradientUnits="userSpaceOnUse">
<stop stop-color="#DA2845"/>
<stop offset="0.565" stop-color="#6338AF"/>
<stop offset="1" stop-color="#011D94"/>
</linearGradient>
<linearGradient id="paint1_linear_41_15" x1="0" y1="346.902" x2="450.957" y2="346.902" gradientUnits="userSpaceOnUse">
<stop stop-color="#DA2845"/>
<stop offset="0.565" stop-color="#6338AF"/>
<stop offset="1" stop-color="#011D94"/>
</linearGradient>
</defs>
</svg>
