<svg width="10870" height="1633" viewBox="0 0 10870 1633" fill="none" xmlns="http://www.w3.org/2000/svg">
<path d="M2079.07 1577H1684.01L2197.14 56.1722H2686.51L3199.64 1577H2804.58L2447.4 439.349H2435.51L2079.07 1577ZM2026.35 978.471H2852.11V1257.69H2026.35V978.471ZM3467.94 1577V56.1722H4096.17C4210.04 56.1722 4308.31 78.45 4390.98 123.005C4474.15 167.066 4538.26 228.701 4583.31 307.911C4628.36 386.626 4650.89 478.212 4650.89 582.67C4650.89 687.623 4627.87 779.456 4581.83 858.171C4536.28 936.391 4471.18 997.036 4386.52 1040.11C4301.87 1083.18 4201.37 1104.71 4085.03 1104.71H3697.4V815.101H4016.71C4072.16 815.101 4118.45 805.447 4155.58 786.14C4193.2 766.832 4221.67 739.852 4240.98 705.197C4260.28 670.048 4269.94 629.205 4269.94 582.67C4269.94 535.639 4260.28 495.044 4240.98 460.885C4221.67 426.23 4193.2 399.497 4155.58 380.685C4117.95 361.872 4071.67 352.466 4016.71 352.466H3835.52V1577H3467.94ZM6965.69 56.1722V1577H6598.11V56.1722H6965.69ZM7301.01 1577V56.1722H8361.43V354.694H7668.59V666.583H8307.22V965.847H7668.59V1278.48H8361.43V1577H7301.01ZM9060.81 1577L8618.22 56.1722H9024.42L9253.88 1052.73H9266.5L9528.64 56.1722H9859.83L10122 1054.96H10134.6L10364.8 56.1722H10770.3L10328.4 1577H9974.19L9700.18 654.701H9688.3L9414.28 1577H9060.81Z" fill="black"/>
<path d="M392.088 1568H0V185.826H373.338L749.894 579.292L1123.23 189.189L1036.33 98.3892H1503.01V596.107L1406.45 495.218L749.894 1181.26L392.088 783.826V1568Z" fill="url(#paint0_linear_5_70)"/>
<path d="M1499.79 787.796L1110.92 1175.91V1568H1499.79V787.796Z" fill="url(#paint1_linear_5_70)"/>
<path d="M5126.62 64.9976H4901.11L4957.48 216.816L5126.62 64.9976Z" fill="black"/>
<path d="M5619.93 1142.91L5366.23 216.816L5056.15 535.636L5366.23 1568H5873.64L6338.76 64.9976H5915.92L5619.93 1142.91Z" fill="black"/>
<path d="M5126.62 64.9976H4901.11L4957.48 216.816L5126.62 64.9976Z" stroke="black"/>
<path d="M5619.93 1142.91L5366.23 216.816L5056.15 535.636L5366.23 1568H5873.64L6338.76 64.9976H5915.92L5619.93 1142.91Z" stroke="black"/>
<defs>
<linearGradient id="paint0_linear_5_70" x1="0" y1="833.196" x2="1503.01" y2="833.196" gradientUnits="userSpaceOnUse">
<stop stop-color="#DA2845"/>
<stop offset="0.565" stop-color="#6338AF"/>
<stop offset="1" stop-color="#011D94"/>
</linearGradient>
<linearGradient id="paint1_linear_5_70" x1="0" y1="833.196" x2="1503.01" y2="833.196" gradientUnits="userSpaceOnUse">
<stop stop-color="#DA2845"/>
<stop offset="0.565" stop-color="#6338AF"/>
<stop offset="1" stop-color="#011D94"/>
</linearGradient>
</defs>
</svg>
