<svg width="3100" height="477" viewBox="0 0 3100 477" fill="none" xmlns="http://www.w3.org/2000/svg">
<path d="M104.027 476.923H0V0H104.027L228.859 130.07L332.885 32.5175L291.275 0H436.912L436.913 130.07L405.704 97.5524L228.859 270.979L104.027 151.748V476.923Z" fill="url(#paint0_linear_79_2)"/>
<path d="M436.913 205.944L332.885 303.496V476.923H436.913V205.944Z" fill="url(#paint1_linear_79_2)"/>
<path d="M565.11 475H473.654L640.168 2.01858H745.942L912.686 475H821.231L694.903 99.0167H691.207L565.11 475ZM568.112 289.549H817.536V358.371H568.112V289.549ZM994.495 475V2.01858H1171.86C1208.2 2.01858 1238.68 8.79306 1263.32 22.342C1288.11 35.891 1306.81 54.5208 1319.44 78.2314C1332.22 101.788 1338.61 128.578 1338.61 158.601C1338.61 188.932 1332.22 215.876 1319.44 239.433C1306.66 262.99 1287.8 281.543 1262.86 295.092C1237.91 308.487 1207.2 315.184 1170.71 315.184H1053.16V244.745H1159.16C1180.41 244.745 1197.81 241.05 1211.36 233.659C1224.9 226.269 1234.91 216.107 1241.38 203.174C1248 190.241 1251.31 175.384 1251.31 158.601C1251.31 141.819 1248 127.038 1241.38 114.259C1234.91 101.48 1224.83 91.5494 1211.12 84.467C1197.58 77.2306 1180.1 73.6125 1158.7 73.6125H1080.18V475H994.495ZM1938.41 2.01858V475H1852.73V2.01858H1938.41ZM2050.7 475V2.01858H2358.33V73.8434H2136.38V202.25H2342.39V274.075H2136.38V403.175H2360.17V475H2050.7ZM2564.79 475L2431.3 2.01858H2523.45L2608.67 349.595H2613.06L2704.05 2.01858H2787.88L2879.11 349.826H2883.27L2968.49 2.01858H3060.63L2927.15 475H2842.62L2747.93 143.128H2744.24L2649.32 475H2564.79Z" fill="black"/>
<path d="M1523.69 0H1416.51L1427.23 65.0349L1523.69 0Z" fill="black"/>
<path d="M1588 357.692L1551.4 97.5529L1459.64 159.415L1527.04 476.923H1652.31L1770.2 0H1673.74L1588 357.692Z" fill="black"/>
<defs>
<linearGradient id="paint0_linear_79_2" x1="-15.8189" y1="232.382" x2="435.021" y2="232.382" gradientUnits="userSpaceOnUse">
<stop stop-color="#DA2845"/>
<stop offset="0.5" stop-color="#6338AF"/>
<stop offset="1" stop-color="#011D94"/>
</linearGradient>
<linearGradient id="paint1_linear_79_2" x1="-15.8189" y1="232.382" x2="435.021" y2="232.382" gradientUnits="userSpaceOnUse">
<stop stop-color="#DA2845"/>
<stop offset="0.5" stop-color="#6338AF"/>
<stop offset="1" stop-color="#011D94"/>
</linearGradient>
</defs>
</svg>
