<svg width="138" height="121" viewBox="0 0 138 121" fill="none" xmlns="http://www.w3.org/2000/svg">
<path d="M67.8881 53.1368C71.4476 53.1368 74.3057 55.9528 74.3057 59.3932C74.3057 62.8336 71.4476 65.6496 67.8881 65.6496C64.3287 65.6496 61.4705 62.8336 61.4705 59.3932C61.4705 55.9528 64.3287 53.1368 67.8881 53.1368Z" fill="#011D94" stroke="#011D94" stroke-width="1.39031"/>
<path d="M13.5046 84.8357C11.1411 90.3969 7.06286 89.5164 5.02374 87.1992C-9.32427 35.2573 18.139 7.81254 33.5251 1C39.5035 1 39.9205 6.23684 39.2254 9.20283C6.85896 28.1111 8.59222 67.7812 13.5046 84.8357Z" fill="#011D94"/>
<path d="M34.6374 69.8203C32.4129 76.605 27.4078 75.5206 25.1833 74.1303C12.9485 45.2118 32.1348 26.3963 43.2573 20.6033C49.2634 18.8237 50.0235 24.4962 49.6527 27.5549C27.7414 38.01 30.5128 60.0881 34.6374 69.8203Z" fill="#011D94"/>
<path d="M54.7969 64.2591C53.1285 69.4866 48.9112 68.0129 47.0111 66.6226C39.4478 49.9389 49.0503 41.5043 54.7969 39.3725C58.9122 39.9286 58.5507 44.0532 57.8555 46.046C49.4025 53.0532 52.2943 61.1077 54.7969 64.2591Z" fill="#011D94"/>
<path d="M13.5046 84.8357C11.1411 90.3969 7.06286 89.5164 5.02374 87.1992C-9.32427 35.2573 18.139 7.81254 33.5251 1C39.5035 1 39.9205 6.23684 39.2254 9.20283C6.85896 28.1111 8.59222 67.7812 13.5046 84.8357Z" stroke="#011D94" stroke-width="1.39031"/>
<path d="M34.6374 69.8203C32.4129 76.605 27.4078 75.5206 25.1833 74.1303C12.9485 45.2118 32.1348 26.3963 43.2573 20.6033C49.2634 18.8237 50.0235 24.4962 49.6527 27.5549C27.7414 38.01 30.5128 60.0881 34.6374 69.8203Z" stroke="#011D94" stroke-width="1.39031"/>
<path d="M54.7969 64.2591C53.1285 69.4866 48.9112 68.0129 47.0111 66.6226C39.4478 49.9389 49.0503 41.5043 54.7969 39.3725C58.9122 39.9286 58.5507 44.0532 57.8555 46.046C49.4025 53.0532 52.2943 61.1077 54.7969 64.2591Z" stroke="#011D94" stroke-width="1.39031"/>
<path d="M124.844 36.0003C127.366 30.5092 131.418 31.5066 133.389 33.8814C146.239 86.2142 117.998 112.858 102.423 119.226C96.447 119.054 96.1806 113.808 96.9606 110.863C129.857 92.8924 129.264 53.1889 124.844 36.0003Z" fill="#011D94"/>
<path d="M103.288 50.4023C105.707 43.6843 110.679 44.9121 112.863 46.3657C124.261 75.6238 104.542 93.8803 93.258 99.3513C87.2032 100.958 86.6064 95.2656 87.0649 92.2188C109.268 82.3976 107.132 60.2489 103.288 50.4023Z" fill="#011D94"/>
<path d="M82.9775 55.382C84.7954 50.2045 88.9686 51.7988 90.8279 53.2431C97.9087 70.1373 88.068 78.2924 82.2625 80.2583C78.1648 79.5841 78.6447 75.4716 79.3968 73.4996C88.0477 66.7382 85.3885 58.6039 82.9775 55.382Z" fill="#011D94"/>
<path d="M124.844 36.0003C127.366 30.5092 131.418 31.5066 133.389 33.8814C146.239 86.2142 117.998 112.858 102.423 119.226C96.447 119.054 96.1806 113.808 96.9606 110.863C129.857 92.8924 129.264 53.1889 124.844 36.0003Z" stroke="#011D94" stroke-width="1.39031"/>
<path d="M103.288 50.4023C105.707 43.6843 110.679 44.9121 112.863 46.3657C124.261 75.6238 104.542 93.8803 93.258 99.3513C87.2032 100.958 86.6064 95.2656 87.0649 92.2188C109.268 82.3976 107.132 60.2489 103.288 50.4023Z" stroke="#011D94" stroke-width="1.39031"/>
<path d="M82.9775 55.382C84.7954 50.2045 88.9686 51.7988 90.8279 53.2431C97.9087 70.1373 88.068 78.2924 82.2625 80.2583C78.1648 79.5841 78.6447 75.4716 79.3968 73.4996C88.0477 66.7382 85.3885 58.6039 82.9775 55.382Z" stroke="#011D94" stroke-width="1.39031"/>
</svg>
